<svg width="683" height="683" xmlns="http://www.w3.org/2000/svg" xmlns:xlink="http://www.w3.org/1999/xlink" xml:space="preserve" overflow="hidden"><g transform="translate(-398 -527)"><g><rect x="399" y="528" width="680" height="680" fill="#F2F2FF" fill-opacity="1"/><path d="M399 528 1079 528 1079 1208 399 1208ZM424.595 553.595 424.595 1182.4 1053.4 1182.4 1053.4 553.595Z" fill="#8E8E96" fill-rule="evenodd" fill-opacity="1"/><path d="M736.346 600.366C760.257 600.366 784.169 600.366 808.08 600.366 808.08 778.935 808.08 957.504 808.08 1136.07 780.917 1136.07 753.753 1136.07 726.59 1136.07 726.59 991.517 726.59 846.961 726.59 702.406 698.853 725.007 671.116 747.607 643.379 770.208 639.935 740.894 636.492 711.58 633.049 682.266 667.481 654.966 701.914 627.666 736.346 600.366Z" fill="#1B1B1B" fill-rule="evenodd" fill-opacity="1"/><text fill="#000000" fill-opacity="0" font-family="Arial,Arial_MSFontService,sans-serif" font-size="535.706" direction="ltr" writing-mode="lr-tb" x="633.049" y="1069.11">1</text></g></g></svg>