<svg width="683" height="683" xmlns="http://www.w3.org/2000/svg" xmlns:xlink="http://www.w3.org/1999/xlink" xml:space="preserve" overflow="hidden"><g transform="translate(-398 -527)"><g><rect x="399" y="528" width="680" height="680" fill="#347FC1" fill-opacity="1"/><path d="M399 528 1079 528 1079 1208 399 1208ZM424.595 553.595 424.595 1182.4 1053.4 1182.4 1053.4 553.595Z" fill="#14334D" fill-rule="evenodd" fill-opacity="1"/><path d="M633.049 600.367C691.393 600.367 749.736 600.367 808.08 600.367 808.08 778.935 808.08 957.504 808.08 1136.07 776.599 1135.86 745.119 1135.65 713.639 1135.44 713.639 985.622 713.639 835.8 713.639 685.979 686.775 685.979 659.912 685.979 633.049 685.979 633.049 657.441 633.049 628.904 633.049 600.367Z" fill="#FFFFFF" fill-rule="evenodd" fill-opacity="1"/><text fill="#000000" fill-opacity="0" font-family="Arial,Arial_MSFontService,sans-serif" font-size="535.706" direction="ltr" writing-mode="lr-tb" x="633.049" y="1069.11">1</text></g></g></svg>