<svg width="683" height="683" xmlns="http://www.w3.org/2000/svg" xmlns:xlink="http://www.w3.org/1999/xlink" xml:space="preserve" overflow="hidden"><g transform="translate(-1127 -527)"><g><rect x="1130" y="528" width="680" height="680" fill="#00AAFF" fill-opacity="1"/><path d="M1130 528 1810 528 1810 1208 1130 1208ZM1155.6 553.595 1155.6 1182.4 1784.4 1182.4 1784.4 553.595Z" fill="#00557F" fill-rule="evenodd" fill-opacity="1"/><path d="M1470.74 600.366C1553.2 600.366 1636.93 651.041 1636.93 761.605 1636.93 841.237 1601.4 901.215 1464.35 1051.18 1528.91 1051.18 1593.47 1051.18 1658.03 1051.18 1658.03 1079.47 1658.03 1107.77 1658.03 1136.07 1529.76 1136.07 1401.5 1136.07 1273.24 1136.07 1280.42 1128.64 1287.38 1120.99 1294.56 1113.57 1345.42 1060.84 1398.21 1001.08 1455.4 931.399 1533.7 836.763 1546.17 801.092 1546.17 764.237 1546.17 722.118 1519.32 685.263 1469.47 685.263 1395.96 685.263 1357.16 754.475 1344.82 776.083 1331.6 746.13 1319.06 715.875 1305.83 685.922 1345.99 633.012 1406.19 600.366 1470.74 600.366Z" fill="#1B1B1B" fill-rule="evenodd" fill-opacity="1"/><text fill="#000000" fill-opacity="0" font-family="Arial,Arial_MSFontService,sans-serif" font-size="535.706" direction="ltr" writing-mode="lr-tb" x="1273.24" y="1069.11">2</text></g></g></svg>