<svg width="687" height="683" xmlns="http://www.w3.org/2000/svg" xmlns:xlink="http://www.w3.org/1999/xlink" xml:space="preserve" overflow="hidden"><g transform="translate(-1856 -527)"><g><rect x="1860" y="528" width="680" height="680" fill="#005AFF" fill-opacity="1"/><path d="M1860 528 2540 528 2540 1208 1860 1208ZM1885.6 553.595 1885.6 1182.4 2514.4 1182.4 2514.4 553.595Z" fill="#002C7F" fill-rule="evenodd" fill-opacity="1"/><path d="M2195.03 600.366C2281.92 600.366 2348.89 655.228 2348.89 740.425 2348.89 808.84 2306.66 835.303 2289.16 846.275 2315.1 858.538 2377.25 888.228 2377.25 976.652 2377.25 1049.59 2325.96 1136.07 2183.56 1136.07 2099.09 1136.07 2047.19 1105.09 2027.88 1094.12 2036.13 1066.8 2044.38 1039.47 2052.62 1012.15 2068.31 1023.77 2109.34 1052.81 2183.56 1052.81 2265.02 1052.81 2291.57 1006.34 2291.57 967.616 2291.57 926.308 2260.19 892.746 2187.79 892.746 2170.69 892.746 2153.59 892.746 2136.5 892.746 2136.5 866.929 2136.5 841.112 2136.5 815.294 2152.39 815.294 2168.28 815.294 2184.17 815.294 2244.51 815.294 2265.02 777.86 2265.02 747.524 2265.02 702.344 2227.01 683.627 2193.22 683.627 2145.55 683.627 2105.72 707.508 2075.55 743.006 2065.5 716.329 2055.44 689.651 2045.38 662.973 2087.62 622.311 2138.31 600.366 2195.03 600.366Z" fill="#FFFFFF" fill-rule="evenodd" fill-opacity="1"/><text fill="#000000" fill-opacity="0" font-family="Arial,Arial_MSFontService,sans-serif" font-size="535.706" direction="ltr" writing-mode="lr-tb" x="2027.88" y="1069.11">3</text></g></g></svg>