<svg width="687" height="683" xmlns="http://www.w3.org/2000/svg" xmlns:xlink="http://www.w3.org/1999/xlink" xml:space="preserve" overflow="hidden"><g transform="translate(-1856 -527)"><g><rect x="1860" y="528" width="680" height="680" fill="#E5C510" fill-opacity="1"/><path d="M1860 528 2540 528 2540 1208 1860 1208ZM1885.6 553.595 1885.6 1182.4 2514.4 1182.4 2514.4 553.595Z" fill="#665807" fill-rule="evenodd" fill-opacity="1"/><path d="M2179.12 600.366C2331.65 600.366 2341.82 704.733 2341.82 736.706 2341.82 782.555 2321.49 825.991 2289.85 843.485 2341.26 864.6 2367.24 914.672 2367.24 967.156 2367.24 1039.55 2317.53 1136.07 2166.7 1136.07 2122.07 1136.07 2075.74 1125.82 2038.46 1100.48 2038.27 1067.5 2038.08 1034.52 2037.89 1001.54 2037.89 1001.54 2037.89 1001.54 2037.89 1001.54 2040.89 1003.82 2043.89 1006.1 2046.89 1008.38 2091.88 1041.16 2136.4 1052.82 2173.48 1052.82 2270.08 1052.82 2281.94 981.635 2281.94 962.33 2281.94 921.308 2252 884.508 2194.94 884.508 2192.68 884.508 2190.42 884.508 2188.16 884.508 2180.82 884.508 2150.31 885.715 2141.27 887.524 2141.27 860.578 2141.27 833.632 2141.27 806.686 2143.53 807.289 2154.27 808.496 2185.9 808.496 2232.79 807.892 2260.47 771.696 2260.47 737.913 2260.47 680.602 2192.68 678.189 2176.3 678.189 2142.4 678.189 2100.6 688.444 2055.97 719.211 2055.97 688.444 2055.97 657.677 2055.97 626.91 2096.65 607.003 2140.71 600.366 2179.12 600.366Z" fill="#0D0D0D" fill-rule="evenodd" fill-opacity="1"/><text fill="#000000" fill-opacity="0" font-family="Arial,Arial_MSFontService,sans-serif" font-size="535.706" direction="ltr" writing-mode="lr-tb" x="2037.89" y="1069.11">3</text></g></g></svg>