<svg width="683" height="683" xmlns="http://www.w3.org/2000/svg" xmlns:xlink="http://www.w3.org/1999/xlink" xml:space="preserve" overflow="hidden"><g transform="translate(-2589 -527)"><g><rect x="2590" y="528" width="680" height="680" fill="#FFE69B" fill-opacity="1"/><path d="M2590 528 3270 528 3270 1208 2590 1208ZM2615.6 553.595 2615.6 1182.4 3244.41 1182.4 3244.41 553.595Z" fill="#7F734D" fill-rule="evenodd" fill-opacity="1"/><path d="M2966.86 736.411C2920.8 803.923 2874.74 871.435 2828.67 938.946 2874.74 938.946 2920.8 938.946 2966.86 938.946 2966.86 871.435 2966.86 803.923 2966.86 736.411ZM2966.86 611.674C2997.28 611.674 3027.7 611.674 3058.12 611.674 3058.12 720.765 3058.12 829.856 3058.12 938.946 3079.85 938.946 3101.57 938.946 3123.3 938.946 3123.3 965.737 3123.3 992.527 3123.3 1019.32 3101.57 1019.32 3079.85 1019.32 3058.12 1019.32 3058.12 1054.47 3058.12 1089.62 3058.12 1124.77 3027.7 1124.77 2997.28 1124.77 2966.86 1124.77 2966.86 1089.62 2966.86 1054.47 2966.86 1019.32 2890.38 1019.32 2813.9 1019.32 2737.42 1019.32 2737.42 994.028 2737.42 968.737 2737.42 943.447 2813.9 832.856 2890.38 722.265 2966.86 611.674Z" fill="#1B1B1B" fill-rule="evenodd" fill-opacity="1"/><text fill="#000000" fill-opacity="0" font-family="Arial,Arial_MSFontService,sans-serif" font-size="513.091" direction="ltr" writing-mode="lr-tb" x="2737.42" y="1060.63">4</text></g></g></svg>