<svg width="683" height="682" xmlns="http://www.w3.org/2000/svg" xmlns:xlink="http://www.w3.org/1999/xlink" xml:space="preserve" overflow="hidden"><g transform="translate(-1127 -1265)"><g><rect x="1130" y="1267" width="680" height="680" fill="#FF6600" fill-opacity="1"/><path d="M1130 1267 1810 1267 1810 1947 1130 1947ZM1155.6 1292.6 1155.6 1921.4 1784.4 1921.4 1784.4 1292.6Z" fill="#7F3300" fill-rule="evenodd" fill-opacity="1"/><path d="M1226.17 1338.93C1316.99 1338.93 1407.81 1338.93 1498.62 1338.93 1498.62 1367.23 1498.62 1395.52 1498.62 1423.82 1434.18 1423.82 1369.73 1423.82 1305.29 1423.82 1305.29 1461.56 1305.29 1499.29 1305.29 1537.02 1318.97 1532.41 1337.41 1525.83 1367.16 1525.83 1463.53 1525.83 1534.32 1596.25 1534.32 1696.94 1534.32 1780.52 1482.56 1874.63 1344.55 1874.63 1266.03 1874.63 1213.68 1843.7 1197.02 1834.49 1204.16 1805.97 1211.3 1777.45 1218.44 1748.93 1274.36 1789.74 1329.09 1789.74 1343.36 1789.74 1436.76 1789.74 1450.44 1726.56 1450.44 1697.6 1450.44 1642.32 1411.18 1609.41 1361.21 1609.41 1337.41 1609.41 1313.62 1616.65 1296.96 1635.08 1273.37 1635.08 1249.77 1635.08 1226.17 1635.08 1226.17 1536.36 1226.17 1437.64 1226.17 1338.93Z" fill="#1B1B1B" fill-rule="evenodd" fill-opacity="1"/><text fill="#000000" fill-opacity="0" font-family="Arial,Arial_MSFontService,sans-serif" font-size="535.706" direction="ltr" writing-mode="lr-tb" x="1197.02" y="1807.67">5</text><path d="M1593.79 1374.93C1610.29 1374.93 1626.78 1374.93 1643.28 1374.93 1643.28 1407.97 1643.28 1441.01 1643.28 1474.05 1676.27 1474.05 1709.26 1474.05 1742.25 1474.05 1742.25 1490.57 1742.25 1507.09 1742.25 1523.61 1709.26 1523.61 1676.27 1523.61 1643.28 1523.61 1643.28 1556.65 1643.28 1589.69 1643.28 1622.73 1626.78 1622.73 1610.29 1622.73 1593.79 1622.73 1593.79 1589.69 1593.79 1556.65 1593.79 1523.61 1560.8 1523.61 1527.81 1523.61 1494.82 1523.61 1494.82 1507.09 1494.82 1490.57 1494.82 1474.05 1527.81 1474.05 1560.8 1474.05 1593.79 1474.05 1593.79 1441.01 1593.79 1407.97 1593.79 1374.93Z" fill="#1B1B1B" fill-rule="evenodd" fill-opacity="1"/><text fill="#000000" fill-opacity="0" font-family="Arial,Arial_MSFontService,sans-serif" font-size="247.8" direction="ltr" writing-mode="lr-tb" x="1494.82" y="1591.76">+</text></g></g></svg>