<svg width="683" height="682" xmlns="http://www.w3.org/2000/svg" xmlns:xlink="http://www.w3.org/1999/xlink" xml:space="preserve" overflow="hidden"><g transform="translate(-1127 -1265)"><g><rect x="1130" y="1267" width="680" height="680" fill="#8B0303" fill-opacity="1"/><path d="M1130 1267 1810 1267 1810 1947 1130 1947ZM1155.6 1292.6 1155.6 1921.4 1784.4 1921.4 1784.4 1292.6Z" fill="#4C0101" fill-rule="evenodd" fill-opacity="1"/><path d="M1238.82 1338.93C1327.31 1338.93 1415.8 1338.93 1504.29 1338.93 1504.29 1366.67 1504.29 1394.41 1504.29 1422.15 1438.76 1422.15 1373.22 1422.15 1307.69 1422.15 1304.35 1447.42 1301.02 1472.7 1297.68 1497.97 1312.99 1495.51 1328.29 1494.27 1342.42 1494.27 1467.8 1494.27 1534.32 1584.28 1534.32 1677.98 1534.32 1784.63 1447.79 1874.63 1315.34 1874.63 1279.43 1874.63 1240 1868.47 1197.02 1853.67 1197.02 1820.59 1197.02 1787.51 1197.02 1754.42 1243.53 1777.23 1284.14 1786.48 1318.28 1786.48 1403.05 1786.48 1446.02 1727.91 1446.02 1678.6 1446.02 1632.36 1410.7 1578.11 1321.82 1578.11 1290.03 1578.11 1251.77 1584.89 1205.85 1601.54 1216.84 1514 1227.83 1426.46 1238.82 1338.93Z" fill="#FFFFFF" fill-rule="evenodd" fill-opacity="1"/><text fill="#000000" fill-opacity="0" font-family="Arial,Arial_MSFontService,sans-serif" font-size="535.706" direction="ltr" writing-mode="lr-tb" x="1197.02" y="1807.67">5</text><path d="M1593.34 1374.93C1610.14 1374.93 1626.94 1374.93 1643.73 1374.93 1643.73 1407.04 1643.73 1439.14 1643.73 1471.25 1676.57 1471.25 1709.41 1471.25 1742.25 1471.25 1742.25 1487.83 1742.25 1504.41 1742.25 1520.99 1709.41 1520.99 1676.57 1520.99 1643.73 1520.99 1643.73 1554.9 1643.73 1588.82 1643.73 1622.73 1626.94 1622.73 1610.14 1622.73 1593.34 1622.73 1593.34 1588.82 1593.34 1554.9 1593.34 1520.99 1560.5 1520.99 1527.66 1520.99 1494.82 1520.99 1494.82 1504.41 1494.82 1487.83 1494.82 1471.25 1527.66 1471.25 1560.5 1471.25 1593.34 1471.25 1593.34 1439.14 1593.34 1407.04 1593.34 1374.93Z" fill="#FFFFFF" fill-rule="evenodd" fill-opacity="1"/><text fill="#000000" fill-opacity="0" font-family="Arial,Arial_MSFontService,sans-serif" font-size="247.8" direction="ltr" writing-mode="lr-tb" x="1494.82" y="1591.76">+</text></g></g></svg>