<svg width="683" height="682" xmlns="http://www.w3.org/2000/svg" xmlns:xlink="http://www.w3.org/1999/xlink" xml:space="preserve" overflow="hidden"><g transform="translate(-398 -1265)"><g><rect x="399" y="1267" width="680" height="680" fill="#FFB41A" fill-opacity="1"/><path d="M399 1267 1079 1267 1079 1947 399 1947ZM424.595 1292.6 424.595 1921.4 1053.4 1921.4 1053.4 1292.6Z" fill="#7F590D" fill-rule="evenodd" fill-opacity="1"/><path d="M497.434 1338.93C587.195 1338.93 676.957 1338.93 766.718 1338.93 766.718 1367.23 766.718 1395.52 766.718 1423.82 703.023 1423.82 639.327 1423.82 575.632 1423.82 575.632 1461.56 575.632 1499.29 575.632 1537.02 589.155 1532.41 607.382 1525.83 636.78 1525.83 732.028 1525.83 801.995 1596.25 801.995 1696.94 801.995 1780.52 750.843 1874.63 614.437 1874.63 541.678 1874.63 491.655 1847.45 472.122 1836.46 470.956 1835.8 469.79 1835.14 468.624 1834.49 468.624 1834.49 468.624 1834.49 468.624 1834.49 475.68 1805.97 482.735 1777.45 489.791 1748.93 545.058 1789.74 599.15 1789.74 613.261 1789.74 705.57 1789.74 719.093 1726.56 719.093 1697.6 719.093 1642.32 680.288 1609.41 630.9 1609.41 607.382 1609.41 583.864 1616.65 567.401 1635.08 544.078 1635.08 520.756 1635.08 497.434 1635.08 497.434 1536.36 497.434 1437.64 497.434 1338.93Z" fill="#1B1B1B" fill-rule="evenodd" fill-opacity="1"/><text fill="#000000" fill-opacity="0" font-family="Arial,Arial_MSFontService,sans-serif" font-size="535.706" direction="ltr" writing-mode="lr-tb" x="468.624" y="1807.67">5</text><path d="M762.501 1471.99C844.978 1471.99 927.455 1471.99 1009.93 1471.99 1009.93 1489.89 1009.93 1507.78 1009.93 1525.67 927.455 1525.67 844.978 1525.67 762.501 1525.67 762.501 1507.78 762.501 1489.89 762.501 1471.99Z" fill="#1B1B1B" fill-rule="evenodd" fill-opacity="1"/><text fill="#000000" fill-opacity="0" font-family="Arial,Arial_MSFontService,sans-serif" font-size="53.677" direction="ltr" writing-mode="lr-tb" x="762.501" y="1518.96">-</text></g></g></svg>