<svg width="683" height="682" xmlns="http://www.w3.org/2000/svg" xmlns:xlink="http://www.w3.org/1999/xlink" xml:space="preserve" overflow="hidden"><g transform="translate(-2589 -1265)"><g><rect x="2590" y="1267" width="680" height="680" fill="#A50002" fill-opacity="1"/><path d="M2590 1267 3270 1267 3270 1947 2590 1947ZM2615.6 1292.6 2615.6 1921.4 3244.41 1921.4 3244.41 1292.6Z" fill="#4E0001" fill-rule="evenodd" fill-opacity="1"/><path d="M2834.5 1605.49C2791.49 1605.49 2743.18 1636.47 2743.18 1692.62 2743.18 1742.32 2777.94 1791.37 2833.32 1791.37 2890.47 1791.37 2917.57 1744.26 2917.57 1697.78 2917.57 1611.3 2850.41 1605.49 2834.5 1605.49ZM2892.83 1338.93C2905.2 1338.93 2918.75 1340.22 2924.05 1340.22 2924.05 1368.19 2924.05 1396.15 2924.05 1424.12 2908.15 1422.83 2906.38 1422.19 2898.72 1422.19 2872.21 1422.19 2784.42 1422.19 2746.71 1569.34 2760.85 1555.15 2791.49 1525.46 2846.87 1525.46 2921.7 1525.46 3000.65 1586.13 3000.65 1695.85 3000.65 1800.41 2927 1874.63 2835.68 1874.63 2753.49 1874.63 2663.56 1815.88 2658.02 1657.88 2657.93 1652.68 2657.84 1647.48 2657.75 1642.28 2657.75 1642.28 2657.75 1642.28 2657.75 1642.28 2657.83 1637.39 2657.91 1632.5 2657.99 1627.61 2663.01 1476.42 2745.57 1338.93 2892.83 1338.93Z" fill="#FFFFFF" fill-rule="evenodd" fill-opacity="1"/><text fill="#000000" fill-opacity="0" font-family="Arial,Arial_MSFontService,sans-serif" font-size="535.706" direction="ltr" writing-mode="lr-tb" x="2657.75" y="1807.67">6</text><path d="M3054.52 1374.93C3071.01 1374.93 3087.51 1374.93 3104 1374.93 3104 1407.97 3104 1441.01 3104 1474.05 3136.99 1474.05 3169.98 1474.05 3202.98 1474.05 3202.98 1490.57 3202.98 1507.09 3202.98 1523.61 3169.98 1523.61 3136.99 1523.61 3104 1523.61 3104 1556.65 3104 1589.69 3104 1622.73 3087.51 1622.73 3071.01 1622.73 3054.52 1622.73 3054.52 1589.69 3054.52 1556.65 3054.52 1523.61 3021.52 1523.61 2988.53 1523.61 2955.54 1523.61 2955.54 1507.09 2955.54 1490.57 2955.54 1474.05 2988.53 1474.05 3021.52 1474.05 3054.52 1474.05 3054.52 1441.01 3054.52 1407.97 3054.52 1374.93Z" fill="#FFFFFF" fill-rule="evenodd" fill-opacity="1"/><text fill="#000000" fill-opacity="0" font-family="Arial,Arial_MSFontService,sans-serif" font-size="247.8" direction="ltr" writing-mode="lr-tb" x="2955.54" y="1591.76">+</text></g></g></svg>