<svg width="687" height="682" xmlns="http://www.w3.org/2000/svg" xmlns:xlink="http://www.w3.org/1999/xlink" xml:space="preserve" overflow="hidden"><g transform="translate(-1856 -1265)"><g><rect x="1860" y="1267" width="680" height="680" fill="#FA2900" fill-opacity="1"/><path d="M1860 1267 2540 1267 2540 1947 1860 1947ZM1885.6 1292.6 1885.6 1921.4 2514.4 1921.4 2514.4 1292.6Z" fill="#7F1500" fill-rule="evenodd" fill-opacity="1"/><path d="M2106.42 1605.49C2063.33 1605.49 2014.93 1636.47 2014.93 1692.62 2014.93 1742.32 2049.75 1791.37 2105.24 1791.37 2162.49 1791.37 2189.64 1744.26 2189.64 1697.78 2189.64 1611.3 2122.35 1605.49 2106.42 1605.49ZM2164.85 1338.93C2177.24 1338.93 2190.82 1340.22 2196.13 1340.22 2196.13 1368.19 2196.13 1396.15 2196.13 1424.12 2180.2 1422.83 2178.43 1422.19 2170.75 1422.19 2144.19 1422.19 2056.25 1422.19 2018.47 1569.34 2032.64 1555.15 2063.33 1525.46 2118.81 1525.46 2191.43 1525.46 2267.92 1582.39 2272.63 1685.71 2272.71 1689.09 2272.79 1692.47 2272.86 1695.85 2272.86 1695.85 2272.86 1695.85 2272.86 1695.85 2272.79 1699.09 2272.72 1702.32 2272.65 1705.56 2268.23 1804.97 2196.22 1874.63 2107.6 1874.63 2022.6 1874.63 1929.35 1812.03 1929.35 1642.28 1929.35 1485.44 2012.57 1338.93 2164.85 1338.93Z" fill="#FFFFFF" fill-rule="evenodd" fill-opacity="1"/><text fill="#000000" fill-opacity="0" font-family="Arial,Arial_MSFontService,sans-serif" font-size="535.706" direction="ltr" writing-mode="lr-tb" x="1929.35" y="1807.67">6</text><path d="M2223.22 1471.99C2305.7 1471.99 2388.18 1471.99 2470.65 1471.99 2470.65 1489.89 2470.65 1507.78 2470.65 1525.67 2388.18 1525.67 2305.7 1525.67 2223.22 1525.67 2223.22 1507.78 2223.22 1489.89 2223.22 1471.99Z" fill="#FFFFFF" fill-rule="evenodd" fill-opacity="1"/><text fill="#000000" fill-opacity="0" font-family="Arial,Arial_MSFontService,sans-serif" font-size="53.6763" direction="ltr" writing-mode="lr-tb" x="2223.22" y="1518.96">-</text></g></g></svg>