<svg width="683" height="682" xmlns="http://www.w3.org/2000/svg" xmlns:xlink="http://www.w3.org/1999/xlink" xml:space="preserve" overflow="hidden"><g transform="translate(-3318 -1265)"><g><rect x="3321" y="1267" width="680" height="680" fill="#7F0079" fill-opacity="1"/><path d="M3321 1267 4001 1267 4001 1947 3321 1947ZM3346.6 1292.6 3346.6 1921.4 3975.4 1921.4 3975.4 1292.6Z" fill="#FFF300" fill-rule="evenodd" fill-opacity="1"/><path d="M3485.54 1338.93C3602.33 1338.93 3719.12 1338.93 3835.9 1338.93 3835.9 1368.46 3835.9 1398 3835.9 1427.54 3758.45 1576.57 3680.99 1725.6 3603.53 1874.63 3571.83 1874.63 3540.12 1874.63 3508.41 1874.63 3587.28 1724.93 3666.14 1575.23 3745 1425.53 3658.51 1425.53 3572.03 1425.53 3485.54 1425.53 3485.54 1396.66 3485.54 1367.79 3485.54 1338.93Z" fill="#FFF300" fill-rule="evenodd" fill-opacity="1"/><text fill="#000000" fill-opacity="0" font-family="Arial,Arial_MSFontService,sans-serif" font-size="535.706" direction="ltr" writing-mode="lr-tb" x="3485.54" y="1807.67">7</text></g></g></svg>