<svg width="710" height="710" xmlns="http://www.w3.org/2000/svg" xmlns:xlink="http://www.w3.org/1999/xlink" xml:space="preserve" overflow="hidden"><g transform="translate(-385 -513)"><g><path d="M399 868C399 680.223 551.223 528 739 528 926.777 528 1079 680.223 1079 868 1079 1055.78 926.777 1208 739 1208 551.223 1208 399 1055.78 399 868Z" stroke="#14334D" stroke-width="27.5" stroke-linecap="butt" stroke-linejoin="miter" stroke-miterlimit="8" stroke-opacity="1" fill="#347FC1" fill-rule="evenodd" fill-opacity="1"/><path d="M645.617 638.832C695.582 638.832 745.547 638.832 795.513 638.832 795.513 791.757 795.513 944.682 795.513 1097.61 768.553 1097.43 741.593 1097.25 714.633 1097.07 714.633 968.762 714.633 840.456 714.633 712.15 691.628 712.15 668.622 712.15 645.617 712.15 645.617 687.711 645.617 663.271 645.617 638.832Z" fill="#FFFFFF" fill-rule="evenodd" fill-opacity="1"/><text fill="#000000" fill-opacity="0" font-family="Arial,Arial_MSFontService,sans-serif" font-size="458.775" direction="ltr" writing-mode="lr-tb" x="645.617" y="1040.26">1</text></g></g></svg>