<svg width="711" height="710" xmlns="http://www.w3.org/2000/svg" xmlns:xlink="http://www.w3.org/1999/xlink" xml:space="preserve" overflow="hidden"><g transform="translate(-1113 -513)"><g><path d="M1130 868C1130 680.223 1282.22 528 1470 528 1657.78 528 1810 680.223 1810 868 1810 1055.78 1657.78 1208 1470 1208 1282.22 1208 1130 1055.78 1130 868Z" stroke="#094D30" stroke-width="27.5" stroke-linecap="butt" stroke-linejoin="miter" stroke-miterlimit="8" stroke-opacity="1" fill="#108452" fill-rule="evenodd" fill-opacity="1"/><path d="M1467.86 638.831C1572.36 638.831 1621.56 702.565 1621.56 773.673 1621.56 805.276 1611.93 837.933 1593.66 867.43 1571.34 903.774 1531.78 936.43 1496.78 968.561 1465.83 997.53 1443.01 1019.13 1436.41 1029.66 1498.98 1028.96 1561.54 1028.26 1624.1 1027.55 1624.1 1050.91 1624.1 1074.26 1624.1 1097.61 1521.13 1097.61 1418.15 1097.61 1315.18 1097.61 1321.77 1056.52 1378.08 985.943 1448.08 916.415 1473.95 890.605 1514.02 853.735 1529.24 827.925 1538.37 812.124 1542.94 794.742 1542.94 778.413 1542.94 741.016 1518.59 707.832 1467.86 707.832 1434.89 707.832 1394.31 717.313 1354.24 755.764 1354.24 725.39 1354.24 695.015 1354.24 664.641 1393.8 646.732 1429.82 638.831 1467.86 638.831Z" fill="#FFFFFF" fill-rule="evenodd" fill-opacity="1"/><text fill="#000000" fill-opacity="0" font-family="Arial,Arial_MSFontService,sans-serif" font-size="458.777" direction="ltr" writing-mode="lr-tb" x="1315.18" y="1040.26">2</text></g></g></svg>