<svg width="715" height="710" xmlns="http://www.w3.org/2000/svg" xmlns:xlink="http://www.w3.org/1999/xlink" xml:space="preserve" overflow="hidden"><g transform="translate(-1842 -513)"><g><path d="M1860 868C1860 680.223 2012.22 528 2200 528 2387.78 528 2540 680.223 2540 868 2540 1055.78 2387.78 1208 2200 1208 2012.22 1208 1860 1055.78 1860 868Z" stroke="#665807" stroke-width="27.5" stroke-linecap="butt" stroke-linejoin="miter" stroke-miterlimit="8" stroke-opacity="1" fill="#E5C510" fill-rule="evenodd" fill-opacity="1"/><path d="M2182.49 638.832C2313.12 638.832 2321.83 728.211 2321.83 755.592 2321.83 794.857 2304.41 832.055 2277.32 847.037 2321.34 865.12 2343.6 908.001 2343.6 952.948 2343.6 1014.95 2301.02 1097.61 2171.85 1097.61 2133.63 1097.61 2093.96 1088.82 2062.03 1067.13 2061.86 1038.88 2061.7 1010.64 2061.54 982.397 2102.66 1014.95 2143.79 1026.31 2177.65 1026.31 2260.38 1026.31 2270.54 965.348 2270.54 948.815 2270.54 913.684 2244.9 882.169 2196.04 882.169 2194.1 882.169 2192.17 882.169 2190.23 882.169 2183.94 882.169 2157.82 883.202 2150.08 884.752 2150.08 861.676 2150.08 838.599 2150.08 815.523 2152.01 816.039 2161.2 817.072 2188.3 817.072 2228.45 816.556 2252.16 785.557 2252.16 756.626 2252.16 707.545 2194.1 705.479 2180.07 705.479 2151.04 705.479 2115.24 714.261 2077.02 740.61 2077.02 714.261 2077.02 687.913 2077.02 661.564 2111.86 644.515 2149.59 638.832 2182.49 638.832Z" fill="#0D0D0D" fill-rule="evenodd" fill-opacity="1"/><text fill="#000000" fill-opacity="0" font-family="Arial,Arial_MSFontService,sans-serif" font-size="458.775" direction="ltr" writing-mode="lr-tb" x="2061.54" y="1040.26">3</text></g></g></svg>