<svg width="711" height="710" xmlns="http://www.w3.org/2000/svg" xmlns:xlink="http://www.w3.org/1999/xlink" xml:space="preserve" overflow="hidden"><g transform="translate(-2575 -513)"><g><path d="M2590 868C2590 680.223 2742.22 528 2930 528 3117.78 528 3270 680.223 3270 868 3270 1055.78 3117.78 1208 2930 1208 2742.22 1208 2590 1055.78 2590 868Z" stroke="#672A07" stroke-width="27.5" stroke-linecap="butt" stroke-linejoin="miter" stroke-miterlimit="8" stroke-opacity="1" fill="#E55E10" fill-rule="evenodd" fill-opacity="1"/><path d="M2983.2 731.666C2983.2 731.666 2966.48 768.908 2946 801.292 2914.72 850.408 2883.45 899.524 2852.18 948.641 2891.9 948.281 2931.62 947.921 2971.34 947.561 2971.52 925.072 2971.7 902.583 2971.88 880.094 2971.88 874.697 2983.74 731.666 2983.74 731.666 2983.56 731.666 2983.38 731.666 2983.2 731.666ZM2978.88 638.831C3001.53 638.831 3024.17 638.831 3046.82 638.831 3046.82 741.741 3046.82 844.651 3046.82 947.561 3063.53 947.561 3080.25 947.561 3096.96 947.561 3096.96 969.87 3096.96 992.179 3096.96 1014.49 3080.25 1014.49 3063.53 1014.49 3046.82 1014.49 3046.82 1042.19 3046.82 1069.9 3046.82 1097.61 3021.66 1097.61 2996.5 1097.61 2971.34 1097.61 2971.34 1069.9 2971.34 1042.19 2971.34 1014.49 2902.14 1014.49 2832.95 1014.49 2763.76 1014.49 2763.76 997.037 2763.76 979.585 2763.76 962.134 2835.47 854.366 2907.18 746.599 2978.88 638.831Z" fill="#FFFFFF" fill-rule="evenodd" fill-opacity="1"/><text fill="#000000" fill-opacity="0" font-family="Arial,Arial_MSFontService,sans-serif" font-size="458.777" direction="ltr" writing-mode="lr-tb" x="2763.76" y="1040.26">4</text></g></g></svg>