<svg width="711" height="710" xmlns="http://www.w3.org/2000/svg" xmlns:xlink="http://www.w3.org/1999/xlink" xml:space="preserve" overflow="hidden"><g transform="translate(-1113 -1251)"><g><path d="M1130 1607C1130 1419.22 1282.22 1267 1470 1267 1657.78 1267 1810 1419.22 1810 1607 1810 1794.78 1657.78 1947 1470 1947 1282.22 1947 1130 1794.78 1130 1607Z" stroke="#4C0101" stroke-width="27.5" stroke-linecap="butt" stroke-linejoin="miter" stroke-miterlimit="8" stroke-opacity="1" fill="#8B0303" fill-rule="evenodd" fill-opacity="1"/><path d="M1271.97 1377.39C1347.75 1377.39 1423.53 1377.39 1499.32 1377.39 1499.32 1401.15 1499.32 1424.91 1499.32 1448.66 1443.19 1448.66 1387.07 1448.66 1330.95 1448.66 1328.09 1470.31 1325.23 1491.95 1322.38 1513.6 1335.48 1511.49 1348.59 1510.43 1360.69 1510.43 1468.06 1510.43 1525.03 1587.51 1525.03 1667.76 1525.03 1759.09 1450.92 1836.17 1337.5 1836.17 1306.75 1836.17 1272.97 1830.89 1236.17 1818.22 1236.17 1789.89 1236.17 1761.55 1236.17 1733.22 1276 1752.75 1310.78 1760.67 1340.02 1760.67 1412.61 1760.67 1449.41 1710.52 1449.41 1668.28 1449.41 1628.69 1419.16 1582.23 1343.04 1582.23 1315.82 1582.23 1283.06 1588.04 1243.74 1602.29 1253.15 1527.33 1262.56 1452.36 1271.97 1377.39Z" fill="#FFFFFF" fill-rule="evenodd" fill-opacity="1"/><text fill="#000000" fill-opacity="0" font-family="Arial,Arial_MSFontService,sans-serif" font-size="458.776" direction="ltr" writing-mode="lr-tb" x="1236.17" y="1778.82">5</text><path d="M1575.58 1408.23C1589.96 1408.23 1604.35 1408.23 1618.73 1408.23 1618.73 1435.72 1618.73 1463.22 1618.73 1490.71 1646.86 1490.71 1674.98 1490.71 1703.1 1490.71 1703.1 1504.91 1703.1 1519.11 1703.1 1533.31 1674.98 1533.31 1646.86 1533.31 1618.73 1533.31 1618.73 1562.35 1618.73 1591.4 1618.73 1620.44 1604.35 1620.44 1589.96 1620.44 1575.58 1620.44 1575.58 1591.4 1575.58 1562.35 1575.58 1533.31 1547.45 1533.31 1519.33 1533.31 1491.2 1533.31 1491.2 1519.11 1491.2 1504.91 1491.2 1490.71 1519.33 1490.71 1547.45 1490.71 1575.58 1490.71 1575.58 1463.22 1575.58 1435.72 1575.58 1408.23Z" fill="#FFFFFF" fill-rule="evenodd" fill-opacity="1"/><text fill="#000000" fill-opacity="0" font-family="Arial,Arial_MSFontService,sans-serif" font-size="212.214" direction="ltr" writing-mode="lr-tb" x="1491.2" y="1593.91">+</text></g></g></svg>