<svg width="710" height="710" xmlns="http://www.w3.org/2000/svg" xmlns:xlink="http://www.w3.org/1999/xlink" xml:space="preserve" overflow="hidden"><g transform="translate(-385 -1251)"><g><path d="M399 1607C399 1419.22 551.223 1267 739 1267 926.777 1267 1079 1419.22 1079 1607 1079 1794.78 926.777 1947 739 1947 551.223 1947 399 1794.78 399 1607Z" stroke="#650A0D" stroke-width="27.5" stroke-linecap="butt" stroke-linejoin="miter" stroke-miterlimit="8" stroke-opacity="1" fill="#C4151A" fill-rule="evenodd" fill-opacity="1"/><path d="M542.868 1377.39C617.771 1377.39 692.675 1377.39 767.578 1377.39 767.578 1401.15 767.578 1424.91 767.578 1448.66 712.106 1448.66 656.635 1448.66 601.163 1448.66 598.339 1470.31 595.516 1491.95 592.693 1513.6 605.647 1511.49 618.602 1510.43 630.56 1510.43 736.687 1510.43 792.989 1587.51 792.989 1667.76 792.989 1759.09 719.746 1836.17 607.64 1836.17 577.247 1836.17 543.864 1830.89 507.492 1818.22 507.492 1789.88 507.492 1761.55 507.492 1733.22 546.854 1752.75 581.233 1760.67 610.131 1760.67 681.879 1760.67 718.251 1710.52 718.251 1668.28 718.251 1628.69 688.356 1582.23 613.121 1582.23 586.215 1582.23 553.829 1588.04 514.966 1602.29 524.266 1527.33 533.567 1452.36 542.868 1377.39Z" fill="#FFFFFF" fill-rule="evenodd" fill-opacity="1"/><text fill="#000000" fill-opacity="0" font-family="Arial,Arial_MSFontService,sans-serif" font-size="458.775" direction="ltr" writing-mode="lr-tb" x="507.492" y="1778.82">5</text><path d="M759.166 1491.35C829.799 1491.35 900.432 1491.35 971.065 1491.35 971.065 1506.67 971.065 1521.99 971.065 1537.32 900.432 1537.32 829.799 1537.32 759.166 1537.32 759.166 1521.99 759.166 1506.67 759.166 1491.35Z" fill="#FFFFFF" fill-rule="evenodd" fill-opacity="1"/><text fill="#000000" fill-opacity="0" font-family="Arial,Arial_MSFontService,sans-serif" font-size="45.9686" direction="ltr" writing-mode="lr-tb" x="759.166" y="1531.57">-</text></g></g></svg>