<svg width="711" height="710" xmlns="http://www.w3.org/2000/svg" xmlns:xlink="http://www.w3.org/1999/xlink" xml:space="preserve" overflow="hidden"><g transform="translate(-2575 -1251)"><g><path d="M2590 1607C2590 1419.22 2742.22 1267 2930 1267 3117.78 1267 3270 1419.22 3270 1607 3270 1794.78 3117.78 1947 2930 1947 2742.22 1947 2590 1794.78 2590 1607Z" stroke="#290033" stroke-width="27.5" stroke-linecap="butt" stroke-linejoin="miter" stroke-miterlimit="8" stroke-opacity="1" fill="#510063" fill-rule="evenodd" fill-opacity="1"/><path d="M2848.93 1606C2801.1 1606 2770.31 1647.9 2770.31 1677.38 2770.31 1735.83 2808.67 1766.86 2847.04 1766.86 2886.35 1766.86 2921.4 1728.59 2921.87 1685.14 2921.87 1653.07 2907.19 1606 2848.93 1606ZM2869.3 1377.39C2895.35 1377.39 2924.72 1383.08 2956.92 1394.46 2956.92 1421.53 2956.92 1448.6 2956.92 1475.66 2920.93 1457.04 2890.61 1448.77 2865.51 1448.77 2798.73 1448.77 2768.42 1506.7 2764.15 1570.32 2773.63 1561.01 2805.83 1535.66 2847.99 1535.66 2864.09 1535.66 2990.55 1538.25 2990.55 1684.62 2990.55 1768.41 2928.51 1836.17 2847.04 1836.17 2712.6 1836.17 2697.73 1687.63 2696.93 1630.86 2696.92 1629.12 2696.91 1627.39 2696.9 1625.66 2696.9 1625.66 2696.9 1625.66 2696.9 1625.66 2696.92 1620.23 2696.94 1614.8 2696.96 1609.37 2697.01 1603.93 2697.13 1598.5 2697.37 1593.07 2700.21 1478.25 2755.15 1377.39 2869.3 1377.39Z" fill="#FFFFFF" fill-rule="evenodd" fill-opacity="1"/><text fill="#000000" fill-opacity="0" font-family="Arial,Arial_MSFontService,sans-serif" font-size="458.776" direction="ltr" writing-mode="lr-tb" x="2696.9" y="1778.82">6</text><path d="M3036.3 1408.23C3050.68 1408.23 3065.07 1408.23 3079.46 1408.23 3079.46 1435.72 3079.46 1463.22 3079.46 1490.71 3107.58 1490.71 3135.7 1490.71 3163.83 1490.71 3163.83 1504.91 3163.83 1519.11 3163.83 1533.31 3135.7 1533.31 3107.58 1533.31 3079.46 1533.31 3079.46 1562.35 3079.46 1591.4 3079.46 1620.44 3065.07 1620.44 3050.68 1620.44 3036.3 1620.44 3036.3 1591.4 3036.3 1562.35 3036.3 1533.31 3008.17 1533.31 2980.05 1533.31 2951.93 1533.31 2951.93 1519.11 2951.93 1504.91 2951.93 1490.71 2980.05 1490.71 3008.17 1490.71 3036.3 1490.71 3036.3 1463.22 3036.3 1435.72 3036.3 1408.23Z" fill="#FFFFFF" fill-rule="evenodd" fill-opacity="1"/><text fill="#000000" fill-opacity="0" font-family="Arial,Arial_MSFontService,sans-serif" font-size="212.214" direction="ltr" writing-mode="lr-tb" x="2951.93" y="1593.91">+</text></g></g></svg>