<svg width="715" height="710" xmlns="http://www.w3.org/2000/svg" xmlns:xlink="http://www.w3.org/1999/xlink" xml:space="preserve" overflow="hidden"><g transform="translate(-1842 -1251)"><g><path d="M1860 1607C1860 1419.22 2012.22 1267 2200 1267 2387.78 1267 2540 1419.22 2540 1607 2540 1794.78 2387.78 1947 2200 1947 2012.22 1947 1860 1794.78 1860 1607Z" stroke="#410C4D" stroke-width="27.5" stroke-linecap="butt" stroke-linejoin="miter" stroke-miterlimit="8" stroke-opacity="1" fill="#711686" fill-rule="evenodd" fill-opacity="1"/><path d="M2120.53 1606C2072.6 1606 2041.76 1647.9 2041.76 1677.38 2041.76 1735.83 2080.19 1766.86 2118.63 1766.86 2158.01 1766.86 2193.12 1728.58 2193.6 1685.14 2193.6 1653.07 2178.89 1606 2120.53 1606ZM2140.93 1377.39C2167.03 1377.39 2196.44 1383.08 2228.71 1394.46 2228.71 1421.53 2228.71 1448.6 2228.71 1475.66 2192.65 1457.04 2162.28 1448.77 2137.13 1448.77 2070.23 1448.77 2039.86 1506.7 2035.59 1570.32 2045.08 1561.01 2077.35 1535.66 2119.58 1535.66 2135.71 1535.66 2262.4 1538.25 2262.4 1684.62 2262.4 1768.41 2200.24 1836.17 2118.63 1836.17 1979.6 1836.17 1968.21 1677.9 1968.21 1625.66 1968.21 1614.8 1968.21 1603.93 1968.69 1593.07 1971.53 1478.25 2026.58 1377.39 2140.93 1377.39Z" fill="#FFFFFF" fill-rule="evenodd" fill-opacity="1"/><text fill="#000000" fill-opacity="0" font-family="Arial,Arial_MSFontService,sans-serif" font-size="458.775" direction="ltr" writing-mode="lr-tb" x="1968.21" y="1778.82">6</text><path d="M2219.89 1491.35C2290.52 1491.35 2361.15 1491.35 2431.79 1491.35 2431.79 1506.67 2431.79 1521.99 2431.79 1537.32 2361.15 1537.32 2290.52 1537.32 2219.89 1537.32 2219.89 1521.99 2219.89 1506.67 2219.89 1491.35Z" fill="#FFFFFF" fill-rule="evenodd" fill-opacity="1"/><text fill="#000000" fill-opacity="0" font-family="Arial,Arial_MSFontService,sans-serif" font-size="45.9679" direction="ltr" writing-mode="lr-tb" x="2219.89" y="1531.57">-</text></g></g></svg>