<svg width="711" height="710" xmlns="http://www.w3.org/2000/svg" xmlns:xlink="http://www.w3.org/1999/xlink" xml:space="preserve" overflow="hidden"><g transform="translate(-3304 -1251)"><g><path d="M3321 1607C3321 1419.22 3473.22 1267 3661 1267 3848.78 1267 4001 1419.22 4001 1607 4001 1794.78 3848.78 1947 3661 1947 3473.22 1947 3321 1794.78 3321 1607Z" stroke="#FFF300" stroke-width="27.5" stroke-linecap="butt" stroke-linejoin="miter" stroke-miterlimit="8" stroke-opacity="1" fill="#3E003F" fill-rule="evenodd" fill-opacity="1"/><path d="M3510.7 1377.39C3610.71 1377.39 3710.73 1377.39 3810.75 1377.39 3810.75 1394.48 3810.75 1411.57 3810.75 1428.67 3743.04 1564.5 3675.33 1700.33 3607.62 1836.17 3577.03 1836.17 3546.44 1836.17 3515.85 1836.17 3582.53 1707.17 3649.21 1578.17 3715.89 1449.18 3647.49 1450.08 3579.09 1450.98 3510.7 1451.88 3510.7 1427.05 3510.7 1402.22 3510.7 1377.39Z" fill="#FFF300" fill-rule="evenodd" fill-opacity="1"/><text fill="#000000" fill-opacity="0" font-family="Arial,Arial_MSFontService,sans-serif" font-size="458.776" direction="ltr" writing-mode="lr-tb" x="3510.7" y="1778.82">7</text></g></g></svg>