<svg width="683" height="683" xmlns="http://www.w3.org/2000/svg" xmlns:xlink="http://www.w3.org/1999/xlink" xml:space="preserve" overflow="hidden"><g transform="translate(-1127 -527)"><g><rect x="1130" y="528" width="680" height="680" fill="#108452" fill-opacity="1"/><path d="M1130 528 1810 528 1810 1208 1130 1208ZM1155.6 553.595 1155.6 1182.4 1784.4 1182.4 1784.4 553.595Z" fill="#094D30" fill-rule="evenodd" fill-opacity="1"/><path d="M1467.57 600.366C1589.58 600.366 1647.04 674.787 1647.04 757.819 1647.04 794.721 1635.78 832.854 1614.46 867.297 1588.4 909.735 1542.2 947.868 1501.33 985.386 1465.2 1019.21 1438.54 1044.43 1430.84 1056.73 1503.89 1055.91 1576.95 1055.09 1650 1054.27 1650 1081.54 1650 1108.81 1650 1136.07 1529.76 1136.07 1409.52 1136.07 1289.28 1136.07 1289.28 1136.07 1289.28 1136.07 1289.28 1136.07 1289.57 1134.54 1289.87 1133.01 1290.17 1131.48 1301.1 1082.95 1365.28 1003.15 1444.47 924.497 1474.67 894.359 1521.47 851.306 1539.24 821.169 1549.9 802.717 1555.23 782.421 1555.23 763.354 1555.23 719.686 1526.8 680.938 1467.57 680.938 1429.06 680.938 1381.68 692.009 1334.89 736.907 1334.89 701.439 1334.89 665.972 1334.89 630.504 1381.09 609.592 1423.14 600.366 1467.57 600.366Z" fill="#FFFFFF" fill-rule="evenodd" fill-opacity="1"/><text fill="#000000" fill-opacity="0" font-family="Arial,Arial_MSFontService,sans-serif" font-size="535.706" direction="ltr" writing-mode="lr-tb" x="1289.28" y="1069.11">2</text></g></g></svg>