<svg width="683" height="683" xmlns="http://www.w3.org/2000/svg" xmlns:xlink="http://www.w3.org/1999/xlink" xml:space="preserve" overflow="hidden"><g transform="translate(-2589 -527)"><g><rect x="2590" y="528" width="680" height="680" fill="#E55E10" fill-opacity="1"/><path d="M2590 528 3270 528 3270 1208 2590 1208ZM2615.6 553.595 2615.6 1182.4 3244.41 1182.4 3244.41 553.595Z" fill="#672A07" fill-rule="evenodd" fill-opacity="1"/><path d="M2992.06 708.768C2992.06 708.768 2972.54 752.255 2948.62 790.07 2912.1 847.422 2875.59 904.774 2839.07 962.126 2885.45 961.706 2931.83 961.286 2978.21 960.865 2978.42 934.605 2978.63 908.345 2978.84 882.085 2978.84 875.783 2992.69 708.768 2992.69 708.768 2992.48 708.768 2992.27 708.768 2992.06 708.768ZM2987.02 600.366C3013.46 600.366 3039.91 600.366 3066.35 600.366 3066.35 720.533 3066.35 840.699 3066.35 960.865 3085.86 960.865 3105.38 960.865 3124.9 960.865 3124.9 986.915 3124.9 1012.97 3124.9 1039.02 3105.38 1039.02 3085.86 1039.02 3066.35 1039.02 3066.35 1071.37 3066.35 1103.72 3066.35 1136.07 3036.97 1136.07 3007.59 1136.07 2978.21 1136.07 2978.21 1103.72 2978.21 1071.37 2978.21 1039.02 2897.41 1039.02 2816.62 1039.02 2735.82 1039.02 2735.82 1018.64 2735.82 998.26 2735.82 977.882 2819.56 852.043 2903.29 726.205 2987.02 600.366Z" fill="#FFFFFF" fill-rule="evenodd" fill-opacity="1"/><text fill="#000000" fill-opacity="0" font-family="Arial,Arial_MSFontService,sans-serif" font-size="535.706" direction="ltr" writing-mode="lr-tb" x="2735.82" y="1069.11">4</text></g></g></svg>