<svg width="683" height="682" xmlns="http://www.w3.org/2000/svg" xmlns:xlink="http://www.w3.org/1999/xlink" xml:space="preserve" overflow="hidden"><g transform="translate(-398 -1265)"><g><rect x="399" y="1267" width="680" height="680" fill="#C4151A" fill-opacity="1"/><path d="M399 1267 1079 1267 1079 1947 399 1947ZM424.595 1292.6 424.595 1921.4 1053.4 1921.4 1053.4 1292.6Z" fill="#650A0D" fill-rule="evenodd" fill-opacity="1"/><path d="M509.932 1338.93C597.396 1338.93 684.86 1338.93 772.323 1338.93 772.323 1366.67 772.323 1394.41 772.323 1422.15 707.55 1422.15 642.776 1422.15 578.002 1422.15 574.706 1447.42 571.409 1472.7 568.112 1497.97 583.239 1495.51 598.365 1494.27 612.329 1494.27 736.252 1494.27 801.995 1584.28 801.995 1677.98 801.995 1784.63 716.471 1874.63 585.566 1874.63 554.512 1874.63 520.786 1869.91 484.387 1858.82 479.133 1857.11 473.879 1855.39 468.624 1853.67 468.624 1820.59 468.624 1787.51 468.624 1754.42 474.278 1757.06 479.932 1759.71 485.586 1762.35 524.522 1779.4 558.949 1786.48 588.475 1786.48 672.254 1786.48 714.725 1727.91 714.725 1678.6 714.725 1632.36 679.817 1578.11 591.966 1578.11 560.548 1578.11 522.732 1584.89 477.351 1601.54 488.211 1514 499.072 1426.46 509.932 1338.93Z" fill="#FFFFFF" fill-rule="evenodd" fill-opacity="1"/><text fill="#000000" fill-opacity="0" font-family="Arial,Arial_MSFontService,sans-serif" font-size="535.706" direction="ltr" writing-mode="lr-tb" x="468.624" y="1807.67">5</text><path d="M762.501 1471.99C844.978 1471.99 927.455 1471.99 1009.93 1471.99 1009.93 1489.89 1009.93 1507.78 1009.93 1525.67 927.455 1525.67 844.978 1525.67 762.501 1525.67 762.501 1507.78 762.501 1489.89 762.501 1471.99Z" fill="#FFFFFF" fill-rule="evenodd" fill-opacity="1"/><text fill="#000000" fill-opacity="0" font-family="Arial,Arial_MSFontService,sans-serif" font-size="53.677" direction="ltr" writing-mode="lr-tb" x="762.501" y="1518.96">-</text></g></g></svg>