<svg width="683" height="682" xmlns="http://www.w3.org/2000/svg" xmlns:xlink="http://www.w3.org/1999/xlink" xml:space="preserve" overflow="hidden"><g transform="translate(-2589 -1265)"><g><rect x="2590" y="1267" width="680" height="680" fill="#510063" fill-opacity="1"/><path d="M2590 1267 3270 1267 3270 1947 2590 1947ZM2615.6 1292.6 2615.6 1921.4 3244.41 1921.4 3244.41 1292.6Z" fill="#290033" fill-rule="evenodd" fill-opacity="1"/><path d="M2835.28 1605.87C2779.42 1605.87 2743.47 1654.79 2743.47 1689.22 2743.47 1757.47 2788.27 1793.7 2833.07 1793.7 2878.97 1793.7 2919.9 1749.01 2920.45 1698.28 2920.45 1660.83 2903.31 1605.87 2835.28 1605.87ZM2859.06 1338.93C2889.48 1338.93 2923.77 1345.57 2961.38 1358.86 2961.38 1390.46 2961.38 1422.07 2961.38 1453.68 2919.35 1431.93 2883.95 1422.27 2854.64 1422.27 2776.66 1422.27 2741.26 1489.91 2736.28 1564.2 2747.34 1553.33 2784.95 1523.74 2834.17 1523.74 2852.98 1523.74 3000.65 1526.76 3000.65 1697.67 3000.65 1795.51 2928.19 1874.63 2833.07 1874.63 2671.02 1874.63 2657.75 1689.82 2657.75 1628.82 2657.75 1616.14 2657.75 1603.46 2658.3 1590.77 2661.62 1456.7 2725.77 1338.93 2859.06 1338.93Z" fill="#FFFFFF" fill-rule="evenodd" fill-opacity="1"/><text fill="#000000" fill-opacity="0" font-family="Arial,Arial_MSFontService,sans-serif" font-size="535.706" direction="ltr" writing-mode="lr-tb" x="2657.75" y="1807.67">6</text><path d="M3054.06 1374.93C3070.86 1374.93 3087.66 1374.93 3104.46 1374.93 3104.46 1407.04 3104.46 1439.14 3104.46 1471.25 3137.3 1471.25 3170.14 1471.25 3202.98 1471.25 3202.98 1487.83 3202.98 1504.41 3202.98 1520.99 3170.14 1520.99 3137.3 1520.99 3104.46 1520.99 3104.46 1554.9 3104.46 1588.82 3104.46 1622.73 3087.66 1622.73 3070.86 1622.73 3054.06 1622.73 3054.06 1588.82 3054.06 1554.9 3054.06 1520.99 3021.22 1520.99 2988.38 1520.99 2955.54 1520.99 2955.54 1504.41 2955.54 1487.83 2955.54 1471.25 2988.38 1471.25 3021.22 1471.25 3054.06 1471.25 3054.06 1439.14 3054.06 1407.04 3054.06 1374.93Z" fill="#FFFFFF" fill-rule="evenodd" fill-opacity="1"/><text fill="#000000" fill-opacity="0" font-family="Arial,Arial_MSFontService,sans-serif" font-size="247.8" direction="ltr" writing-mode="lr-tb" x="2955.54" y="1591.76">+</text></g></g></svg>