<svg width="687" height="682" xmlns="http://www.w3.org/2000/svg" xmlns:xlink="http://www.w3.org/1999/xlink" xml:space="preserve" overflow="hidden"><g transform="translate(-1856 -1265)"><g><rect x="1860" y="1267" width="680" height="680" fill="#711686" fill-opacity="1"/><path d="M1860 1267 2540 1267 2540 1947 1860 1947ZM1885.6 1292.6 1885.6 1921.4 2514.4 1921.4 2514.4 1292.6Z" fill="#410C4D" fill-rule="evenodd" fill-opacity="1"/><path d="M2107.2 1605.87C2051.24 1605.87 2015.22 1654.79 2015.22 1689.22 2015.22 1757.47 2060.1 1793.7 2104.98 1793.7 2150.97 1793.7 2191.97 1749.01 2192.52 1698.28 2192.52 1660.83 2175.35 1605.87 2107.2 1605.87ZM2131.02 1338.93C2161.5 1338.93 2195.85 1345.57 2233.52 1358.86 2233.52 1390.46 2233.52 1422.07 2233.52 1453.68 2191.42 1431.93 2155.96 1422.27 2126.59 1422.27 2048.47 1422.27 2013.01 1489.91 2008.02 1564.2 2019.1 1553.33 2056.78 1523.74 2106.09 1523.74 2124.93 1523.74 2272.86 1526.76 2272.86 1697.67 2272.86 1795.51 2200.28 1874.63 2104.98 1874.63 1947.72 1874.63 1930.32 1701.19 1929.39 1634.9 1929.37 1632.87 1929.36 1630.85 1929.35 1628.82 1929.35 1628.82 1929.35 1628.82 1929.35 1628.82 1929.37 1622.48 1929.39 1616.14 1929.41 1609.8 1929.48 1603.46 1929.62 1597.12 1929.9 1590.77 1933.22 1456.7 1997.49 1338.93 2131.02 1338.93Z" fill="#FFFFFF" fill-rule="evenodd" fill-opacity="1"/><text fill="#000000" fill-opacity="0" font-family="Arial,Arial_MSFontService,sans-serif" font-size="535.706" direction="ltr" writing-mode="lr-tb" x="1929.35" y="1807.67">6</text><path d="M2223.22 1471.99C2305.7 1471.99 2388.18 1471.99 2470.65 1471.99 2470.65 1489.89 2470.65 1507.78 2470.65 1525.67 2388.18 1525.67 2305.7 1525.67 2223.22 1525.67 2223.22 1507.78 2223.22 1489.89 2223.22 1471.99Z" fill="#FFFFFF" fill-rule="evenodd" fill-opacity="1"/><text fill="#000000" fill-opacity="0" font-family="Arial,Arial_MSFontService,sans-serif" font-size="53.6763" direction="ltr" writing-mode="lr-tb" x="2223.22" y="1518.96">-</text></g></g></svg>