<svg width="683" height="682" xmlns="http://www.w3.org/2000/svg" xmlns:xlink="http://www.w3.org/1999/xlink" xml:space="preserve" overflow="hidden"><g transform="translate(-3318 -1265)"><g><rect x="3321" y="1267" width="680" height="680" fill="#3E003F" fill-opacity="1"/><path d="M3321 1267 4001 1267 4001 1947 3321 1947ZM3346.6 1292.6 3346.6 1921.4 3975.4 1921.4 3975.4 1292.6Z" fill="#FFF300" fill-rule="evenodd" fill-opacity="1"/><path d="M3485.54 1338.93C3602.33 1338.93 3719.12 1338.93 3835.9 1338.93 3835.9 1358.88 3835.9 1378.84 3835.9 1398.8 3756.84 1557.41 3677.78 1716.02 3598.71 1874.63 3563 1874.63 3527.28 1874.63 3491.56 1874.63 3569.42 1724 3647.28 1573.38 3725.14 1422.75 3645.27 1423.8 3565.4 1424.85 3485.54 1425.9 3485.54 1396.91 3485.54 1367.92 3485.54 1338.93Z" fill="#FFF300" fill-rule="evenodd" fill-opacity="1"/><text fill="#000000" fill-opacity="0" font-family="Arial,Arial_MSFontService,sans-serif" font-size="535.706" direction="ltr" writing-mode="lr-tb" x="3485.54" y="1807.67">7</text></g></g></svg>